<svg xmlns="http://www.w3.org/2000/svg" viewBox="0 0 160 160"><path d="M149.07 39.86a21.85 21.85 0 0 0-29.8-8 61.49 61.49 0 0 0-29.75-13.31 4 4 0 1 0-1.22 7.91 53.52 53.52 0 0 1 24.82 10.72 21.8 21.8 0 0 0 20.28 35.18 53.87 53.87 0 0 1-3.13 26.85 4 4 0 1 0 7.46 2.88 61.86 61.86 0 0 0 3.35-32.41 21.83 21.83 0 0 0 8-29.82zm-5.55 14.49a13.83 13.83 0 1 1-1.38-10.49 13.74 13.74 0 0 1 1.39 10.5zM30.06 72.5a22 22 0 0 0 5.74-.77 21.88 21.88 0 0 0 11.4-34.79 53.52 53.52 0 0 1 24.5-10.49 4 4 0 0 0-1.22-7.91A61.49 61.49 0 0 0 41 31.63a21.89 21.89 0 0 0-29.89 8.07 21.87 21.87 0 0 0 7.82 29.73 61.85 61.85 0 0 0 3.33 32.68 4 4 0 1 0 7.46-2.89 53.87 53.87 0 0 1-3.14-27 21.61 21.61 0 0 0 3.48.28zM18 43.68a13.8 13.8 0 0 1 8.42-6.49 14 14 0 0 1 3.64-.49A13.81 13.81 0 0 1 37 38.55c.18.1.34.22.51.33a3.83 3.83 0 0 0 2.32 1.84 13.89 13.89 0 1 1-21.8 3zM127.61 113a4 4 0 0 0-5.62.61 53.82 53.82 0 0 1-21.65 16.13 21.82 21.82 0 0 0-40.65 0A53.83 53.83 0 0 1 38 113.57a4 4 0 0 0-6.23 5 61.81 61.81 0 0 0 26.4 19.12 21.83 21.83 0 0 0 43.66 0 61.79 61.79 0 0 0 26.39-19.11 4 4 0 0 0-.61-5.58zM80 151.51a13.83 13.83 0 1 1 13.61-16.21 4 4 0 0 0 .06.42A13.73 13.73 0 0 1 80 151.51z"/></svg>