<svg version="1.1" id="e502c424-7dfe-461c-bceb-2226a8def57f__a8c52eaa-f722-4f92-8ca9-e6253383caea__c34d321e-b892-4b25-bf30-9a49f29b5a8c__d131ae50-8d1d-4a9a-bd89-3eb7bc2ffedc__Layer_1" xmlns="http://www.w3.org/2000/svg" x="0" y="0" viewBox="0 0 24 24" xml:space="preserve"><style>.e502c424-7dfe-461c-bceb-2226a8def57f__a8c52eaa-f722-4f92-8ca9-e6253383caea__c34d321e-b892-4b25-bf30-9a49f29b5a8c__d131ae50-8d1d-4a9a-bd89-3eb7bc2ffedc__st0{fill:#fff}</style><path class="e502c424-7dfe-461c-bceb-2226a8def57f__a8c52eaa-f722-4f92-8ca9-e6253383caea__c34d321e-b892-4b25-bf30-9a49f29b5a8c__d131ae50-8d1d-4a9a-bd89-3eb7bc2ffedc__st0" d="M12 4.6c2.4 0 2.7 0 3.6.1.9 0 1.4.2 1.7.3.8.3 1.4.9 1.7 1.7.1.3.3.8.3 1.7 0 .9.1 1.2.1 3.6s0 2.7-.1 3.6c0 .9-.2 1.3-.3 1.7-.3.8-.9 1.4-1.7 1.7-.3.1-.8.3-1.7.3-.9 0-1.2.1-3.6.1s-2.7 0-3.6-.1c-.9 0-1.3-.2-1.7-.3-.8-.3-1.4-.9-1.7-1.7-.1-.3-.3-.8-.3-1.7 0-.9-.1-1.2-.1-3.6s0-2.7.1-3.6c0-.9.2-1.4.3-1.7.3-.8.9-1.4 1.7-1.7.3-.1.8-.3 1.7-.3.9 0 1.2-.1 3.6-.1M12 3c-2.4 0-2.7 0-3.7.1-.7 0-1.5.2-2.2.4C4.9 4 4 4.9 3.5 6.1c-.3.7-.4 1.5-.4 2.2C3 9.3 3 9.6 3 12s0 2.7.1 3.7c0 .7.2 1.5.4 2.2.5 1.2 1.4 2.1 2.6 2.6.7.3 1.4.4 2.2.4 1 0 1.3.1 3.7.1s2.7 0 3.7-.1c.7 0 1.5-.2 2.2-.4 1.2-.5 2.2-1.4 2.6-2.6.3-.7.4-1.4.4-2.2 0-1 .1-1.3.1-3.7s0-2.7-.1-3.7c0-.7-.2-1.5-.4-2.2-.5-1.2-1.4-2.1-2.6-2.6-.7-.3-1.4-.4-2.2-.4-1-.1-1.3-.1-3.7-.1z"/><path class="e502c424-7dfe-461c-bceb-2226a8def57f__a8c52eaa-f722-4f92-8ca9-e6253383caea__c34d321e-b892-4b25-bf30-9a49f29b5a8c__d131ae50-8d1d-4a9a-bd89-3eb7bc2ffedc__st0" d="M12 7.4c-2.5 0-4.6 2.1-4.6 4.6s2.1 4.6 4.6 4.6 4.6-2.1 4.6-4.6c0-2.5-2.1-4.6-4.6-4.6zm0 7.6c-1.7 0-3-1.3-3-3s1.3-3 3-3 3 1.3 3 3-1.3 3-3 3z"/><circle class="e502c424-7dfe-461c-bceb-2226a8def57f__a8c52eaa-f722-4f92-8ca9-e6253383caea__c34d321e-b892-4b25-bf30-9a49f29b5a8c__d131ae50-8d1d-4a9a-bd89-3eb7bc2ffedc__st0" cx="16.8" cy="7.2" r="1.1"/></svg>