<svg xmlns="http://www.w3.org/2000/svg" viewBox="0 0 160 160"><path d="M151.94 108.59c-2.75-15.93-10.77-27.81-21.72-33.27a24 24 0 1 0-28.44 0 35.78 35.78 0 0 0-13.52 12.05 45.2 45.2 0 0 0-15.88-11.9 32 32 0 1 0-32.77 0c-15.93 7-27.69 24.25-31.56 47.88a4 4 0 0 0 7.89 1.29C20.39 97.56 36.11 80.06 56 80.06s35.6 17.5 40.05 44.59a4 4 0 0 0 7.89-1.3 77.73 77.73 0 0 0-10.57-29.1C98.62 85.17 106.77 80 116 80c14.12 0 24.87 11.48 28.06 29.95a4 4 0 0 0 7.88-1.36zM32 48a24 24 0 1 1 24 24 24 24 0 0 1-24-24zm68 8a16 16 0 1 1 16 16 16 16 0 0 1-16-16z"/></svg>