<svg xmlns="http://www.w3.org/2000/svg" viewBox="0 0 160 160"><path d="M111.66 157.77a4 4 0 0 0 .2-.46c0-.08.05-.17.08-.25a4 4 0 0 0 .1-.45v-.27a4 4 0 0 0 0-.49v-.24a4 4 0 0 0-.14-.73l-12.2-41.81-.05-.19-15.8-54a4 4 0 0 0-7.68 0l-15.8 54-.07.25-12.23 41.75a4 4 0 0 0-.14.73v.25a4 4 0 0 0 0 .48v.28a4 4 0 0 0 .09.44c0 .09 0 .18.08.26a4 4 0 0 0 .19.44c0 .07.06.14.1.2a4 4 0 0 0 .4.59 4 4 0 0 0 .5.49l.21.15c.09.07.18.14.28.2l.11.06.25.13a4 4 0 0 0 .45.18l.14.06h.15l.24.05.39.05h.86l.36-.07.27-.07.33-.12.27-.11.3-.17.25-.16c.1-.07.19-.15.29-.23l.17-.14L80 134.74l25.34 24.15.16.13c.1.08.19.16.29.24l.25.16.3.17.28.12.32.12.28.07.34.07h.87l.38-.05.25-.05h.15l.14-.05a4 4 0 0 0 .46-.19l.25-.12.12-.06c.1-.06.19-.14.28-.21l.21-.15a4 4 0 0 0 .5-.5 4 4 0 0 0 .4-.59c.04-.1.06-.17.09-.23zm-20.35-44.88L80 123.69l-11.3-10.77L80 74.24zm-31.37 29.93 6.22-21.26 8 7.66zm33.9-21.29 6.23 21.3-14.29-13.62zm-32.92-37.8a4 4 0 0 0 2.82-6.86 26.49 26.49 0 0 1 0-37.42 4 4 0 0 0-5.65-5.66 34.51 34.51 0 0 0 0 48.78 3.94 3.94 0 0 0 2.83 1.16z"/><path d="M46.17 18.4a4 4 0 0 0-5.66 0 56.27 56.27 0 0 0-.1 79.49l.1.1a3.88 3.88 0 0 0 2.76 1.15 4 4 0 0 0 2.81-6.9 48.26 48.26 0 0 1 .09-68.18 4 4 0 0 0 0-5.66z"/><path d="M8 58.13A69.54 69.54 0 0 1 28.56 8.65 4 4 0 1 0 22.9 3a78 78 0 0 0-.11 110.28l.13.13a3.9 3.9 0 0 0 2.74 1.13 4 4 0 0 0 2.81-6.88A69.54 69.54 0 0 1 8 58.13zm96 .02a26.32 26.32 0 0 1-7.77 18.76 4 4 0 0 0 5.66 5.66l.06-.06a34.46 34.46 0 0 0-.06-48.72 4 4 0 1 0-5.65 5.66 26.29 26.29 0 0 1 7.76 18.7z"/><path d="M119.49 18.39a4 4 0 0 0-5.65 5.66 48.26 48.26 0 0 1 .09 68.18l2.83 2.83-2.92-2.73a4 4 0 0 0 2.85 6.75 4.1 4.1 0 0 0 2.9-1.2 56.27 56.27 0 0 0-.1-79.49z"/><path d="M137.1 3a4 4 0 0 0-5.65 5.66 70 70 0 0 1 .05 99 4 4 0 1 0 5.55 5.76l.13-.13A78 78 0 0 0 137.1 3z"/></svg>